<svg xmlns="http://www.w3.org/2000/svg" fill="none" viewBox="0 0 526 106" height="106" width="526">
<path fill="black" d="M48.3241 105.13H0.847656V0.369141H51.7356C64.576 0.558667 73.6733 4.27813 79.0274 11.5275C82.2494 15.9814 83.8603 21.3118 83.8603 27.5188C83.8603 33.9154 82.2494 39.0563 79.0274 42.9416C77.2269 45.1211 74.5735 47.1111 71.0673 48.9117C76.4214 50.8543 80.4489 53.9341 83.1496 58.1511C85.8977 62.368 87.2718 67.4853 87.2718 73.5027C87.2718 79.7097 85.7082 85.2771 82.581 90.2048C80.591 93.4741 78.1035 96.2222 75.1184 98.4492C71.7543 101.008 67.7743 102.761 63.1782 103.709C58.6296 104.656 53.6782 105.13 48.3241 105.13ZM47.8266 59.0039H21.743V86.9354H47.4712C52.0672 86.9354 55.6446 86.3195 58.2032 85.0876C62.8466 82.8132 65.1683 78.4541 65.1683 72.0102C65.1683 66.5613 62.9176 62.8182 58.4164 60.7808C55.9052 59.6436 52.3752 59.0513 47.8266 59.0039ZM58.7007 39.0326C61.5436 37.3268 62.965 34.2707 62.965 29.8642C62.965 24.9839 61.0698 21.762 57.2792 20.1984C54.0099 19.1086 49.8403 18.5637 44.7705 18.5637H21.743V41.6623H47.4712C52.0672 41.6623 55.8104 40.7857 58.7007 39.0326Z"></path>
<path fill="black" d="M201.889 59.3593H151.001V86.2958H208.996V105.13H129.608V0.369141H206.438V18.9191H151.001V41.1648H201.889V59.3593Z"></path>
<path fill="black" d="M333.564 105.13H306.982L287.082 69.4516L266.045 105.13H240.601L274.289 51.7546L242.235 0.369141H268.39L287.082 34.4129L306.272 0.369141H331.574L299.52 50.9017L333.564 105.13Z"></path>
<path fill="black" d="M368.011 0.369141H389.759V105.13H368.011V0.369141Z"></path>
<path fill="black" d="M494.853 83.595H456.26L449.011 105.13H426.126L463.51 0.369141H488.243L525.343 105.13H501.605L494.853 83.595ZM488.74 65.5426L475.663 24.3206L462.159 65.5426H488.74Z"></path>
</svg>
