<svg width="121" height="26" viewBox="0 0 20 26" fill="none" xmlns="http://www.w3.org/2000/svg">
<g clip-path="url(#clip0_2012_1639)">
<g filter="url(#filter0_d_2012_1639)">
<path d="M8.82453 3.18795L2.51566 5.95517C1.1263 6.56457 0.494022 8.18489 1.10343 9.57426L7.20474 23.4844C7.81414 24.8737 9.43447 25.506 10.8238 24.8966L19.9297 20.9026C21.3191 20.2932 21.9513 18.6728 21.3419 17.2835L16.5637 6.38976L8.82453 3.18795Z" fill="#43B490"/>
</g>
<g filter="url(#filter1_d_2012_1639)">
<path d="M13.0706 1.37927L5.67819 3.01656C4.05021 3.37713 3.02277 4.98917 3.38334 6.61715L6.99333 22.9163C7.3539 24.5443 8.96594 25.5717 10.5939 25.2111L21.2637 22.848C22.8917 22.4874 23.9191 20.8754 23.5585 19.2474L20.7314 6.48269L13.0706 1.37927Z" fill="#F5CD7C"/>
</g>
<g filter="url(#filter2_d_2012_1639)">
<path d="M18.1821 1.11719H10.1054C8.32667 1.11719 6.88477 2.5591 6.88477 4.33778V22.1458C6.88477 23.9245 8.32667 25.3664 10.1054 25.3664H21.7629C23.5415 25.3664 24.9834 23.9245 24.9834 22.1458V8.19943L18.1821 1.11719Z" fill="#0478FF"/>
</g>
<path d="M18.0684 8.19983L18.1824 1.11768L24.9836 8.19964L18.0684 8.19983Z" fill="#3591FF"/>
<g clip-path="url(#clip1_2012_1639)">
<path d="M18.5877 14.3217L19.0613 13.2797L20.1032 12.8061L19.0613 12.3325L18.5877 11.2905L18.114 12.3325L17.0721 12.8061L18.114 13.2797L18.5877 14.3217ZM15.746 14.5111L14.7987 12.4272L13.8515 14.5111L11.7676 15.4584L13.8515 16.4056L14.7987 18.4895L15.746 16.4056L17.8299 15.4584L15.746 14.5111ZM18.5877 16.595L18.114 17.637L17.0721 18.1106L18.114 18.5842L18.5877 19.6262L19.0613 18.5842L20.1032 18.1106L19.0613 17.637L18.5877 16.595Z" fill="white"/>
</g>
<path d="M28.6875 24.3361V7.18697H39.6211V9.76587H31.7537V14.8405H38.9437V17.3362H31.7537V24.3361H28.6875Z" fill="url(#paint0_linear_2012_1639)"/>
<path d="M41.8849 24.3361V11.7387H44.8441V24.3361H41.8849ZM43.3585 9.93225C42.899 9.93225 42.5108 9.7738 42.1938 9.45688C41.8769 9.13996 41.7185 8.75966 41.7185 8.31598C41.7185 7.86437 41.8769 7.48408 42.1938 7.17508C42.5108 6.85817 42.899 6.69971 43.3585 6.69971C43.826 6.69971 44.2182 6.85817 44.5351 7.17508C44.852 7.48408 45.0104 7.86437 45.0104 8.31598C45.0104 8.75966 44.852 9.13996 44.5351 9.45688C44.2182 9.7738 43.826 9.93225 43.3585 9.93225Z" fill="url(#paint1_linear_2012_1639)"/>
<path d="M47.6901 24.3361V7.18697H50.6493V24.3361H47.6901Z" fill="url(#paint2_linear_2012_1639)"/>
<path d="M58.9503 24.5857C57.6906 24.5857 56.6052 24.3203 55.694 23.7894C54.7908 23.2586 54.0975 22.5059 53.6143 21.5314C53.131 20.5569 52.8893 19.4041 52.8893 18.073V18.0612C52.8893 16.738 53.131 15.5853 53.6143 14.6028C54.1055 13.6124 54.7908 12.8439 55.6702 12.2972C56.5576 11.7506 57.6034 11.4772 58.8077 11.4772C60.0041 11.4772 61.038 11.7426 61.9095 12.2735C62.789 12.7964 63.4624 13.5332 63.9299 14.484C64.4053 15.4347 64.6429 16.5439 64.6429 17.8116V18.7623H54.3511V16.7895H63.2287L61.8026 18.6316V17.4907C61.8026 16.6667 61.6758 15.9814 61.4223 15.4347C61.1687 14.888 60.8201 14.48 60.3765 14.2106C59.9328 13.9333 59.4217 13.7947 58.8434 13.7947C58.2571 13.7947 57.7342 13.9373 57.2746 14.2225C56.823 14.4998 56.4665 14.9158 56.205 15.4704C55.9515 16.025 55.8247 16.6984 55.8247 17.4907V18.6316C55.8247 19.4001 55.9515 20.0577 56.205 20.6044C56.4665 21.1432 56.8349 21.5591 57.3103 21.8523C57.7857 22.1375 58.3522 22.2801 59.0098 22.2801C59.501 22.2801 59.9328 22.2048 60.3052 22.0543C60.6775 21.8959 60.9826 21.6938 61.2202 21.4482C61.4659 21.2026 61.6362 20.9372 61.7313 20.652L61.755 20.5688H64.5122L64.4884 20.6995C64.3855 21.1828 64.1953 21.6582 63.918 22.1256C63.6407 22.5851 63.2683 23.0011 62.8009 23.3735C62.3334 23.7459 61.7788 24.043 61.1371 24.2648C60.4953 24.4787 59.7664 24.5857 58.9503 24.5857Z" fill="url(#paint3_linear_2012_1639)"/>
<path d="M74.5364 24.6332C72.8964 24.6332 71.4703 24.2727 70.2581 23.5517C69.0538 22.8308 68.1228 21.8087 67.4652 20.4856C66.8156 19.1545 66.4907 17.5779 66.4907 15.7556V15.7437C66.4907 13.9214 66.8195 12.3487 67.4771 11.0256C68.1347 9.70249 69.0657 8.6844 70.27 7.97133C71.4742 7.25035 72.8964 6.88986 74.5364 6.88986C75.8517 6.88986 77.0282 7.14339 78.0661 7.65046C79.1119 8.15752 79.9636 8.8587 80.6212 9.75399C81.2788 10.6493 81.6829 11.6793 81.8334 12.8439L81.8453 12.9628H78.8386L78.7792 12.737C78.6128 12.0794 78.3394 11.5129 77.9591 11.0375C77.5788 10.5621 77.0995 10.1937 76.5211 9.93225C75.9428 9.6708 75.2812 9.54007 74.5364 9.54007C73.5382 9.54007 72.6706 9.7936 71.9338 10.3007C71.1969 10.8077 70.6265 11.5248 70.2224 12.4517C69.8184 13.3708 69.6163 14.4681 69.6163 15.7437V15.7556C69.6163 17.0233 69.8184 18.1245 70.2224 19.0594C70.6265 19.9864 71.1969 20.7074 71.9338 21.2224C72.6785 21.7295 73.5461 21.983 74.5364 21.983C75.2654 21.983 75.915 21.8562 76.4855 21.6027C77.0639 21.3412 77.5511 20.9649 77.9473 20.4737C78.3434 19.9825 78.6326 19.3843 78.8148 18.6791L78.8505 18.5603H81.8572L81.8334 18.691C81.6908 19.8557 81.2907 20.8857 80.6331 21.781C79.9755 22.6763 79.1238 23.3774 78.078 23.8845C77.0322 24.3836 75.8517 24.6332 74.5364 24.6332Z" fill="url(#paint4_linear_2012_1639)"/>
<path d="M84.1328 24.3361V11.7387H87.0802V13.9135H87.1515C87.3416 13.1529 87.6863 12.5587 88.1854 12.1309C88.6925 11.6951 89.3105 11.4772 90.0394 11.4772C90.2216 11.4772 90.3959 11.4891 90.5623 11.5129C90.7287 11.5366 90.8673 11.5644 90.9782 11.5961V14.27C90.8594 14.2225 90.689 14.1829 90.4672 14.1512C90.2533 14.1195 90.0196 14.1037 89.766 14.1037C89.2114 14.1037 88.7321 14.2186 88.328 14.4483C87.924 14.6702 87.615 14.999 87.401 15.4347C87.1871 15.8705 87.0802 16.4013 87.0802 17.0272V24.3361H84.1328Z" fill="url(#paint5_linear_2012_1639)"/>
<path d="M96.1774 24.55C95.3455 24.55 94.6087 24.3916 93.9669 24.0747C93.3331 23.7498 92.8379 23.3022 92.4814 22.7317C92.1328 22.1533 91.9585 21.4918 91.9585 20.747V20.7233C91.9585 19.6061 92.3744 18.7227 93.2063 18.073C94.0461 17.4154 95.2267 17.0431 96.7479 16.9559L101.561 16.6588V18.6197L97.1638 18.8931C96.4349 18.9406 95.8763 19.1149 95.4881 19.416C95.0999 19.7171 94.9058 20.1172 94.9058 20.6163V20.6282C94.9058 21.1432 95.0999 21.5512 95.4881 21.8523C95.8843 22.1454 96.4072 22.292 97.0568 22.292C97.6273 22.292 98.1344 22.1771 98.5781 21.9474C99.0297 21.7176 99.3862 21.4046 99.6476 21.0085C99.9091 20.6123 100.04 20.1647 100.04 19.6656V15.8863C100.04 15.2525 99.8378 14.7533 99.4337 14.3889C99.0376 14.0165 98.4632 13.8303 97.7105 13.8303C97.0133 13.8303 96.4547 13.9809 96.0348 14.2819C95.6149 14.5751 95.3534 14.9554 95.2504 15.4228L95.2267 15.5298H92.4933L92.5051 15.3872C92.5685 14.6424 92.8181 13.9769 93.2539 13.3906C93.6896 12.7964 94.2918 12.3289 95.0603 11.9883C95.8367 11.6476 96.7558 11.4772 97.8175 11.4772C98.8712 11.4772 99.7823 11.6515 100.551 12.0001C101.327 12.3487 101.925 12.836 102.345 13.4619C102.773 14.0878 102.987 14.8247 102.987 15.6724V24.3361H100.04V22.399H99.9685C99.7308 22.8347 99.4218 23.215 99.0415 23.5399C98.6612 23.8647 98.2255 24.1143 97.7343 24.2886C97.251 24.4629 96.732 24.55 96.1774 24.55Z" fill="url(#paint6_linear_2012_1639)"/>
<path d="M106.451 24.3361V14.0205H104.728V11.7387H106.451V10.5384C106.451 9.31031 106.756 8.40313 107.366 7.81684C107.984 7.23054 108.979 6.93739 110.349 6.93739C110.642 6.93739 110.932 6.94928 111.217 6.97305C111.51 6.99682 111.748 7.02455 111.93 7.05624V9.12412C111.803 9.10827 111.661 9.09639 111.502 9.08846C111.352 9.07262 111.197 9.0647 111.039 9.0647C110.46 9.0647 110.032 9.19542 109.755 9.45688C109.486 9.71834 109.351 10.1066 109.351 10.6215V11.7387H111.882V14.0205H109.41V24.3361H106.451Z" fill="url(#paint7_linear_2012_1639)"/>
<path d="M118.745 24.5857C117.438 24.5857 116.464 24.3005 115.822 23.73C115.188 23.1596 114.871 22.2247 114.871 20.9253V14.0205H113.088V11.7387H114.871V8.54178H117.878V11.7387H120.219V14.0205H117.878V20.6876C117.878 21.2977 118.012 21.7215 118.282 21.9592C118.559 22.189 118.963 22.3039 119.494 22.3039C119.645 22.3039 119.775 22.2999 119.886 22.292C120.005 22.2762 120.116 22.2643 120.219 22.2563V24.4787C120.045 24.5025 119.831 24.5263 119.577 24.55C119.332 24.5738 119.054 24.5857 118.745 24.5857Z" fill="url(#paint8_linear_2012_1639)"/>
</g>
<defs>
<filter id="filter0_d_2012_1639" x="-163.129" y="-156.812" width="348.703" height="349.941" filterUnits="userSpaceOnUse" color-interpolation-filters="sRGB">
<feFlood flood-opacity="0" result="BackgroundImageFix"/>
<feColorMatrix in="SourceAlpha" type="matrix" values="0 0 0 0 0 0 0 0 0 0 0 0 0 0 0 0 0 0 127 0" result="hardAlpha"/>
<feOffset dy="4"/>
<feGaussianBlur stdDeviation="82"/>
<feComposite in2="hardAlpha" operator="out"/>
<feColorMatrix type="matrix" values="0 0 0 0 0 0 0 0 0 0 0 0 0 0 0 0 0 0 0.06 0"/>
<feBlend mode="normal" in2="BackgroundImageFix" result="effect1_dropShadow_2012_1639"/>
<feBlend mode="normal" in="SourceGraphic" in2="effect1_dropShadow_2012_1639" result="shape"/>
</filter>
<filter id="filter1_d_2012_1639" x="-30.6895" y="-28.6206" width="88.3203" height="91.9038" filterUnits="userSpaceOnUse" color-interpolation-filters="sRGB">
<feFlood flood-opacity="0" result="BackgroundImageFix"/>
<feColorMatrix in="SourceAlpha" type="matrix" values="0 0 0 0 0 0 0 0 0 0 0 0 0 0 0 0 0 0 127 0" result="hardAlpha"/>
<feOffset dy="4"/>
<feGaussianBlur stdDeviation="17"/>
<feComposite in2="hardAlpha" operator="out"/>
<feColorMatrix type="matrix" values="0 0 0 0 0 0 0 0 0 0 0 0 0 0 0 0 0 0 0.04 0"/>
<feBlend mode="normal" in2="BackgroundImageFix" result="effect1_dropShadow_2012_1639"/>
<feBlend mode="normal" in="SourceGraphic" in2="effect1_dropShadow_2012_1639" result="shape"/>
</filter>
<filter id="filter2_d_2012_1639" x="-41.1152" y="-38.8828" width="98.0996" height="104.249" filterUnits="userSpaceOnUse" color-interpolation-filters="sRGB">
<feFlood flood-opacity="0" result="BackgroundImageFix"/>
<feColorMatrix in="SourceAlpha" type="matrix" values="0 0 0 0 0 0 0 0 0 0 0 0 0 0 0 0 0 0 127 0" result="hardAlpha"/>
<feOffset dx="-8"/>
<feGaussianBlur stdDeviation="20"/>
<feComposite in2="hardAlpha" operator="out"/>
<feColorMatrix type="matrix" values="0 0 0 0 0 0 0 0 0 0 0 0 0 0 0 0 0 0 0.1 0"/>
<feBlend mode="normal" in2="BackgroundImageFix" result="effect1_dropShadow_2012_1639"/>
<feBlend mode="normal" in="SourceGraphic" in2="effect1_dropShadow_2012_1639" result="shape"/>
</filter>
<linearGradient id="paint0_linear_2012_1639" x1="28.6875" y1="8.94772" x2="127.63" y2="24.6332" gradientUnits="userSpaceOnUse">
<stop stop-color="#0478FF"/>
<stop offset="1" stop-color="#02B9A4"/>
</linearGradient>
<linearGradient id="paint1_linear_2012_1639" x1="28.6875" y1="8.94772" x2="127.63" y2="24.6332" gradientUnits="userSpaceOnUse">
<stop stop-color="#0478FF"/>
<stop offset="1" stop-color="#02B9A4"/>
</linearGradient>
<linearGradient id="paint2_linear_2012_1639" x1="28.6875" y1="8.94772" x2="127.63" y2="24.6332" gradientUnits="userSpaceOnUse">
<stop stop-color="#0478FF"/>
<stop offset="1" stop-color="#02B9A4"/>
</linearGradient>
<linearGradient id="paint3_linear_2012_1639" x1="28.6875" y1="8.94772" x2="127.63" y2="24.6332" gradientUnits="userSpaceOnUse">
<stop stop-color="#0478FF"/>
<stop offset="1" stop-color="#02B9A4"/>
</linearGradient>
<linearGradient id="paint4_linear_2012_1639" x1="28.6875" y1="8.94772" x2="127.63" y2="24.6332" gradientUnits="userSpaceOnUse">
<stop stop-color="#0478FF"/>
<stop offset="1" stop-color="#02B9A4"/>
</linearGradient>
<linearGradient id="paint5_linear_2012_1639" x1="28.6875" y1="8.94772" x2="127.63" y2="24.6332" gradientUnits="userSpaceOnUse">
<stop stop-color="#0478FF"/>
<stop offset="1" stop-color="#02B9A4"/>
</linearGradient>
<linearGradient id="paint6_linear_2012_1639" x1="28.6875" y1="8.94772" x2="127.63" y2="24.6332" gradientUnits="userSpaceOnUse">
<stop stop-color="#0478FF"/>
<stop offset="1" stop-color="#02B9A4"/>
</linearGradient>
<linearGradient id="paint7_linear_2012_1639" x1="28.6875" y1="8.94772" x2="127.63" y2="24.6332" gradientUnits="userSpaceOnUse">
<stop stop-color="#0478FF"/>
<stop offset="1" stop-color="#02B9A4"/>
</linearGradient>
<linearGradient id="paint8_linear_2012_1639" x1="28.6875" y1="8.94772" x2="127.63" y2="24.6332" gradientUnits="userSpaceOnUse">
<stop stop-color="#0478FF"/>
<stop offset="1" stop-color="#02B9A4"/>
</linearGradient>
<clipPath id="clip0_2012_1639">
<rect width="121" height="26" fill="white"/>
</clipPath>
<clipPath id="clip1_2012_1639">
<rect width="9.09344" height="9.09344" fill="white" transform="translate(11.3887 10.9116)"/>
</clipPath>
</defs>
</svg>
