<svg width="1235" height="451" viewBox="0 0 1235 451" fill="none" xmlns="http://www.w3.org/2000/svg">
<path d="M0.808594 208.697C27.7773 203.671 41.2669 189.791 41.2669 167.051C41.2669 157.009 39.9388 139.822 37.2878 115.489C34.6471 89.5876 33.3294 70.8167 33.3294 59.1761C33.3294 40.1344 38.6836 25.5928 49.3919 15.5511C60.1003 5.49902 74.4388 0.467773 92.4128 0.467773H115.434V31.8011H99.1628C88.8555 31.8011 81.1888 34.124 76.1628 38.7594C71.1315 43.3844 68.6211 50.9834 68.6211 61.5511C68.6211 69.2178 69.1471 78.6709 70.2044 89.9053C71.2721 101.145 71.9388 108.749 72.2044 112.718C74.8398 138.093 76.1628 156.603 76.1628 168.239C76.1628 182.254 72.6523 193.957 65.6419 203.343C58.6419 212.733 47.8711 219.009 33.3294 222.176V222.968C47.8711 226.15 58.6419 232.499 65.6419 242.009C72.6523 251.525 76.1628 263.291 76.1628 277.301C76.1628 288.942 74.8398 307.447 72.2044 332.822C71.9388 336.796 71.2721 344.4 70.2044 355.634C69.1471 366.874 68.6211 376.322 68.6211 383.989C68.6211 394.572 71.1315 402.176 76.1628 406.801C81.1888 411.426 88.8555 413.739 99.1628 413.739H115.434V445.072H92.4128C74.4388 445.072 60.1003 440.041 49.3919 429.989C38.6836 419.947 33.3294 405.405 33.3294 386.364C33.3294 374.739 34.6471 355.968 37.2878 330.051C39.9388 305.733 41.2669 288.546 41.2669 278.489C41.2669 255.754 27.7773 241.874 0.808594 236.843V208.697Z" fill="#1AEDE6"/>
<path d="M1234.85 240.701C1207.69 245.758 1194.12 259.738 1194.12 282.639C1194.12 292.753 1195.45 310.055 1198.12 334.555C1200.77 360.639 1202.1 379.54 1202.1 391.264C1202.1 410.43 1196.71 425.066 1185.93 435.18C1175.15 445.29 1160.71 450.347 1142.6 450.347H1119.43V418.805H1135.81C1146.19 418.805 1153.92 416.472 1158.98 411.805C1164.03 407.149 1166.56 399.503 1166.56 388.868C1166.56 381.144 1166.02 371.628 1164.95 360.305C1163.9 348.988 1163.24 341.337 1162.98 337.347C1160.31 311.795 1158.98 293.154 1158.98 281.43C1158.98 267.321 1162.5 255.472 1169.56 245.889C1176.61 236.305 1187.46 229.92 1202.1 226.722V225.93C1187.46 222.738 1176.61 216.42 1169.56 206.972C1162.5 197.514 1158.98 185.732 1158.98 171.618C1158.98 159.91 1160.31 141.279 1162.98 115.722C1163.24 111.722 1163.9 104.071 1164.95 92.7637C1166.02 81.446 1166.56 71.9251 1166.56 64.2012C1166.56 53.5501 1164.03 45.8991 1158.98 41.2428C1153.92 36.5762 1146.19 34.2428 1135.81 34.2428H1119.43V2.70117H1142.6C1160.71 2.70117 1175.15 7.76367 1185.93 17.8887C1196.71 28.0033 1202.1 42.6387 1202.1 61.8053C1202.1 73.5137 1200.77 92.4199 1198.12 118.514C1195.45 143.003 1194.12 160.305 1194.12 170.43C1194.12 193.321 1207.69 207.295 1234.85 212.347V240.701Z" fill="#1AEDE6"/>
<path d="M334.618 83.411C333.458 79.7701 331.898 76.5093 329.937 73.6286C328.017 70.7079 325.716 68.2274 323.035 66.1869C320.355 64.1064 317.294 62.526 313.853 61.4458C310.452 60.3655 306.712 59.8254 302.631 59.8254C295.709 59.8254 289.467 61.6058 283.906 65.1666C278.345 68.7275 273.944 73.9487 270.703 80.8303C267.502 87.672 265.902 96.0539 265.902 105.976C265.902 115.939 267.522 124.361 270.763 131.242C274.004 138.124 278.445 143.345 284.086 146.906C289.728 150.467 296.149 152.247 303.351 152.247C310.032 152.247 315.854 150.887 320.815 148.166C325.816 145.446 329.677 141.605 332.398 136.644C335.158 131.642 336.539 125.761 336.539 118.999L341.34 119.9H306.171V104.596H354.483V118.579C354.483 128.902 352.282 137.864 347.881 145.466C343.52 153.027 337.479 158.869 329.757 162.99C322.075 167.111 313.273 169.171 303.351 169.171C292.228 169.171 282.466 166.611 274.064 161.489C265.702 156.368 259.18 149.107 254.499 139.704C249.818 130.262 247.478 119.059 247.478 106.096C247.478 96.294 248.838 87.4919 251.559 79.6901C254.279 71.8882 258.1 65.2667 263.021 59.8254C267.982 54.3441 273.804 50.1631 280.485 47.2824C287.207 44.3617 294.549 42.9014 302.511 42.9014C309.152 42.9014 315.334 43.8816 321.055 45.8421C326.816 47.8025 331.938 50.5832 336.419 54.184C340.94 57.7849 344.681 62.0659 347.641 67.0271C350.602 71.9482 352.602 77.4095 353.643 83.411H334.618Z" fill="white"/>
<path d="M484.789 106.036C484.789 119.159 482.388 130.442 477.587 139.884C472.786 149.287 466.204 156.528 457.842 161.609C449.52 166.651 440.058 169.171 429.456 169.171C418.813 169.171 409.311 166.651 400.949 161.609C392.627 156.528 386.065 149.267 381.264 139.824C376.463 130.382 374.062 119.119 374.062 106.036C374.062 92.9132 376.463 81.6505 381.264 72.2483C386.065 62.8061 392.627 55.5644 400.949 50.5232C409.311 45.442 418.813 42.9014 429.456 42.9014C440.058 42.9014 449.52 45.442 457.842 50.5232C466.204 55.5644 472.786 62.8061 477.587 72.2483C482.388 81.6505 484.789 92.9132 484.789 106.036ZM466.424 106.036C466.424 96.0339 464.804 87.612 461.563 80.7703C458.362 73.8887 453.961 68.6875 448.36 65.1666C442.799 61.6058 436.497 59.8254 429.456 59.8254C422.374 59.8254 416.052 61.6058 410.491 65.1666C404.93 68.6875 400.529 73.8887 397.288 80.7703C394.087 87.612 392.487 96.0339 392.487 106.036C392.487 116.039 394.087 124.481 397.288 131.362C400.529 138.204 404.93 143.405 410.491 146.966C416.052 150.487 422.374 152.247 429.456 152.247C436.497 152.247 442.799 150.487 448.36 146.966C453.961 143.405 458.362 138.204 461.563 131.362C464.804 124.481 466.424 116.039 466.424 106.036Z" fill="white"/>
<path d="M586.948 44.5818H605.552V125.421C605.552 134.023 603.532 141.645 599.491 148.286C595.45 154.888 589.769 160.089 582.447 163.89C575.125 167.651 566.543 169.531 556.701 169.531C546.898 169.531 538.336 167.651 531.015 163.89C523.693 160.089 518.012 154.888 513.971 148.286C509.93 141.645 507.909 134.023 507.909 125.421V44.5818H526.454V123.921C526.454 129.482 527.674 134.423 530.114 138.744C532.595 143.065 536.096 146.466 540.617 148.946C545.138 151.387 550.499 152.607 556.701 152.607C562.942 152.607 568.323 151.387 572.845 148.946C577.406 146.466 580.886 143.065 583.287 138.744C585.728 134.423 586.948 129.482 586.948 123.921V44.5818Z" fill="white"/>
<path d="M632.514 167.491V44.5818H676.324C685.846 44.5818 693.748 46.2222 700.03 49.5029C706.351 52.7837 711.072 57.3248 714.193 63.1262C717.314 68.8875 718.874 75.5491 718.874 83.1109C718.874 90.6327 717.294 97.2542 714.133 102.976C711.012 108.657 706.291 113.078 699.97 116.239C693.688 119.399 685.786 120.98 676.264 120.98H643.076V105.016H674.584C680.585 105.016 685.466 104.156 689.227 102.435C693.028 100.715 695.809 98.2145 697.569 94.9337C699.329 91.6529 700.21 87.712 700.21 83.1109C700.21 78.4698 699.309 74.4488 697.509 71.048C695.749 67.6472 692.968 65.0466 689.167 63.2462C685.406 61.4058 680.465 60.4855 674.344 60.4855H651.058V167.491H632.514ZM693.188 112.038L723.555 167.491H702.43L672.663 112.038H693.188Z" fill="white"/>
<path d="M751.822 167.491H732.137L776.368 44.5818H797.793L842.023 167.491H822.339L787.59 66.907H786.63L751.822 167.491ZM755.123 119.359H818.978V134.963H755.123V119.359Z" fill="white"/>
<path d="M857.642 44.5818L891.85 144.685H893.23L927.438 44.5818H947.483L903.253 167.491H881.828L837.597 44.5818H857.642Z" fill="white"/>
<path d="M299.748 285.556H281.024C280.304 281.555 278.963 278.034 277.003 274.994C275.042 271.953 272.642 269.372 269.801 267.252C266.96 265.131 263.78 263.531 260.259 262.451C256.778 261.37 253.077 260.83 249.156 260.83C242.075 260.83 235.733 262.611 230.132 266.172C224.57 269.732 220.169 274.954 216.929 281.835C213.728 288.717 212.127 297.119 212.127 307.041C212.127 317.044 213.728 325.486 216.929 332.367C220.169 339.249 224.59 344.45 230.192 347.971C235.793 351.492 242.095 353.252 249.096 353.252C252.977 353.252 256.658 352.732 260.139 351.692C263.66 350.612 266.84 349.031 269.681 346.951C272.522 344.87 274.922 342.33 276.883 339.329C278.883 336.288 280.264 332.807 281.024 328.886L299.748 328.946C298.748 334.988 296.808 340.549 293.927 345.63C291.086 350.672 287.425 355.033 282.944 358.713C278.503 362.354 273.422 365.175 267.701 367.175C261.979 369.176 255.738 370.176 248.976 370.176C238.334 370.176 228.851 367.656 220.529 362.614C212.208 357.533 205.646 350.271 200.845 340.829C196.084 331.387 193.703 320.124 193.703 307.041C193.703 293.918 196.104 282.655 200.905 273.253C205.706 263.811 212.268 256.569 220.589 251.528C228.911 246.447 238.374 243.906 248.976 243.906C255.498 243.906 261.579 244.846 267.221 246.727C272.902 248.567 278.003 251.288 282.524 254.889C287.045 258.45 290.786 262.811 293.747 267.972C296.708 273.093 298.708 278.955 299.748 285.556Z" fill="white"/>
<path d="M321.938 368.496V245.587H340.483V298.999H401.757V245.587H420.362V368.496H401.757V314.903H340.483V368.496H321.938Z" fill="white"/>
<path d="M457.751 368.496H438.066L482.296 245.587H503.721L547.952 368.496H528.267L493.519 267.912H492.559L457.751 368.496ZM461.051 320.364H524.907V335.968H461.051V320.364Z" fill="white"/>
<path d="M565.701 245.587H588.207L627.336 341.129H628.776L667.905 245.587H690.411V368.496H672.767V279.555H671.626L635.378 368.316H620.734L584.486 279.495H583.345V368.496H565.701V245.587Z" fill="white"/>
<path d="M727.755 368.496H708.07L752.3 245.587H773.725L817.956 368.496H798.271L763.523 267.912H762.563L727.755 368.496ZM731.055 320.364H794.91V335.968H731.055V320.364Z" fill="white"/>
<path d="M835.705 368.496V245.587H879.515C889.038 245.587 896.94 247.227 903.221 250.508C909.543 253.789 914.264 258.33 917.384 264.131C920.505 269.892 922.066 276.554 922.066 284.116C922.066 291.638 920.485 298.259 917.324 303.98C914.204 309.662 909.483 314.083 903.161 317.244C896.88 320.404 888.978 321.985 879.455 321.985H846.268V306.021H877.775C883.776 306.021 888.658 305.161 892.419 303.44C896.219 301.72 899 299.219 900.76 295.939C902.521 292.658 903.401 288.717 903.401 284.116C903.401 279.475 902.501 275.454 900.7 272.053C898.94 268.652 896.159 266.051 892.358 264.251C888.598 262.411 883.656 261.49 877.535 261.49H854.249V368.496H835.705ZM896.379 313.043L926.747 368.496H905.622L875.855 313.043H896.379Z" fill="white"/>
<path d="M963.175 245.587V368.496H944.631V245.587H963.175Z" fill="white"/>
<path d="M1000.56 368.496H980.879L1025.11 245.587H1046.53L1090.77 368.496H1071.08L1036.33 267.912H1035.37L1000.56 368.496ZM1003.86 320.364H1067.72V335.968H1003.86V320.364Z" fill="white"/>
</svg>
