<svg xmlns="http://www.w3.org/2000/svg" width="5486" height="716" viewBox="0 0 5486 716" fill="none"><path d="M45 671H306V709H2.26498e-06V6.99998H45V671ZM756.203 529H423.203L356.203 709H307.203L565.203 23H615.203L872.203 709H823.203L756.203 529ZM742.203 491L590.203 82L437.203 491H742.203ZM1128.38 360C1128.38 292 1143.72 231 1174.38 177C1205.05 122.333 1246.72 79.6666 1299.38 49C1352.72 18.3333 1411.72 2.99997 1476.38 2.99997C1552.38 2.99997 1618.72 21.3333 1675.38 58C1732.05 94.6666 1773.38 146.667 1799.38 214H1690.38C1671.05 172 1643.05 139.667 1606.38 117C1570.38 94.3333 1527.05 83 1476.38 83C1427.72 83 1384.05 94.3333 1345.38 117C1306.72 139.667 1276.38 172 1254.38 214C1232.38 255.333 1221.38 304 1221.38 360C1221.38 415.333 1232.38 464 1254.38 506C1276.38 547.333 1306.72 579.333 1345.38 602C1384.05 624.667 1427.72 636 1476.38 636C1527.05 636 1570.38 625 1606.38 603C1643.05 580.333 1671.05 548 1690.38 506H1799.38C1773.38 572.667 1732.05 624.333 1675.38 661C1618.72 697 1552.38 715 1476.38 715C1411.72 715 1352.72 700 1299.38 670C1246.72 639.333 1205.05 597 1174.38 543C1143.72 489 1128.38 428 1128.38 360ZM2421.84 12V709H2330.84V393H1975.84V709H1884.84V12H1975.84V318H2330.84V12H2421.84ZM2618.23 12V709H2527.23V12H2618.23ZM2689.32 360C2689.32 292 2704.65 231 2735.32 177C2765.99 122.333 2807.65 79.6666 2860.32 49C2913.65 18.3333 2972.65 2.99997 3037.32 2.99997C3113.32 2.99997 3179.65 21.3333 3236.32 58C3292.99 94.6666 3334.32 146.667 3360.32 214H3251.32C3231.99 172 3203.99 139.667 3167.32 117C3131.32 94.3333 3087.99 83 3037.32 83C2988.65 83 2944.99 94.3333 2906.32 117C2867.65 139.667 2837.32 172 2815.32 214C2793.32 255.333 2782.32 304 2782.32 360C2782.32 415.333 2793.32 464 2815.32 506C2837.32 547.333 2867.65 579.333 2906.32 602C2944.99 624.667 2988.65 636 3037.32 636C3087.99 636 3131.32 625 3167.32 603C3203.99 580.333 3231.99 548 3251.32 506H3360.32C3334.32 572.667 3292.99 624.333 3236.32 661C3179.65 697 3113.32 715 3037.32 715C2972.65 715 2913.65 700 2860.32 670C2807.65 639.333 2765.99 597 2735.32 543C2704.65 489 2689.32 428 2689.32 360ZM4108.01 205C4108.01 267 4088.67 315.333 4050.01 350C4011.34 384 3954.01 401 3878.01 401H3728.01V709H3683.01V6.99998H3878.01C3955.34 6.99998 4013.01 25 4051.01 61C4089.01 96.3333 4108.01 144.333 4108.01 205ZM3878.01 361C4001.34 361 4063.01 309 4063.01 205C4063.01 153.667 4048.34 114.667 4019.01 87.9999C3989.67 60.6666 3942.67 46.9999 3878.01 46.9999H3728.01V361H3878.01ZM4223.91 6.99998V709H4178.91V6.99998H4223.91ZM4310.87 359C4310.87 289.667 4325.2 228 4353.87 174C4383.2 119.333 4423.2 76.6666 4473.87 46C4525.2 15.3333 4582.53 -5.10216e-05 4645.87 -5.10216e-05C4725.87 -5.10216e-05 4793.2 18.6666 4847.87 55.9999C4902.53 93.3333 4942.53 145.667 4967.87 213H4915.87C4895.87 159.667 4862.53 117.667 4815.87 87C4769.87 55.6666 4713.2 40 4645.87 40C4591.87 40 4542.87 53 4498.87 78.9999C4454.87 104.333 4420.2 141.333 4394.87 190C4369.53 238 4356.87 294.333 4356.87 359C4356.87 423 4369.53 479 4394.87 527C4420.2 574.333 4454.87 611 4498.87 637C4542.87 663 4591.87 676 4645.87 676C4713.2 676 4769.87 660.667 4815.87 630C4862.53 598.667 4895.87 556.333 4915.87 503H4967.87C4942.53 570.333 4902.53 622.667 4847.87 660C4793.2 697.333 4725.87 716 4645.87 716C4582.53 716 4525.2 701 4473.87 671C4423.2 640.333 4383.2 598 4353.87 544C4325.2 489.333 4310.87 427.667 4310.87 359ZM5426.4 709L5103.4 378V709H5058.4V6.99998H5103.4V341L5426.4 6.99998H5484.4L5142.4 359L5485.4 709H5426.4Z" fill="black"></path></svg>